<svg width="160" height="66" viewBox="0 0 160 66" fill="none" xmlns="http://www.w3.org/2000/svg">
<path d="M32.0213 0H0.449837C0.204202 0 0 0.199468 0 0.452524V65.5504C0 65.7976 0.198283 66.003 0.449837 66.003H16.1054C16.351 66.003 16.5552 65.8035 16.5552 65.5504V49.8014C16.5552 49.5543 16.7535 49.3489 17.005 49.3489H32.6605C32.9062 49.3489 33.1104 49.1494 33.1104 48.8964V33.1474C33.1104 32.9003 32.9121 32.6948 32.6605 32.6948H1.50044C1.16603 32.6948 1.0003 32.29 1.23705 32.0577L32.3468 0.759168C32.625 0.485272 32.4208 0 32.0243 0H32.0213Z" fill="url(#paint0_linear_4691_2228)"/>
<path d="M63.9864 43.2041H57.0938V48.9143C57.0938 49.1554 56.9015 49.3489 56.6617 49.3489H54.3593C54.1196 49.3489 53.9272 49.1554 53.9272 48.9143V32.6502H65.0577C65.2974 32.6502 65.4898 32.8437 65.4898 33.0849V34.7908C65.4898 35.0319 65.2974 35.2254 65.0577 35.2254H57.0938V40.6617H63.9864C64.2261 40.6617 64.4185 40.8552 64.4185 41.0963V42.7695C64.4185 43.0106 64.2261 43.2041 63.9864 43.2041ZM83.4182 32.6353H81.1305C80.8908 32.6353 80.6984 32.8288 80.6984 33.07V43.1714C80.6984 45.7615 79.4821 47.0476 77.0524 47.0476C75.8538 47.0476 74.9571 46.7261 74.3326 46.083C73.7082 45.4399 73.4063 44.5051 73.4063 43.2845V33.0849C73.4063 32.8437 73.214 32.6502 72.9743 32.6502H70.6866C70.4469 32.6502 70.2545 32.8437 70.2545 33.0849V43.2666C70.2545 45.2464 70.879 46.8065 72.0923 47.9169C73.3087 49.0274 74.9719 49.5901 77.0494 49.5901C79.127 49.5901 80.7606 49.0274 81.9917 47.8842C83.2228 46.7588 83.8473 45.2137 83.8473 43.2666V33.0849C83.8473 32.8437 83.6549 32.6502 83.4152 32.6502V32.6353H83.4182ZM102.909 34.7908V33.0849C102.909 32.8437 102.717 32.6502 102.477 32.6502H88.8991C88.6594 32.6502 88.467 32.8437 88.467 33.0849V34.7908C88.467 35.0319 88.6594 35.2254 88.8991 35.2254H94.0959V48.9143C94.0959 49.1554 94.2883 49.3489 94.528 49.3489H96.7979C97.0376 49.3489 97.23 49.1554 97.23 48.9143V35.2254H102.474C102.714 35.2254 102.906 35.0319 102.906 34.7908H102.909ZM120.725 32.6353H118.437C118.198 32.6353 118.005 32.8288 118.005 33.07V43.1714C118.005 45.7615 116.789 47.0476 114.359 47.0476C113.161 47.0476 112.264 46.7261 111.64 46.083C111.015 45.4399 110.713 44.5051 110.713 43.2845V33.0849C110.713 32.8437 110.521 32.6502 110.281 32.6502H107.993C107.754 32.6502 107.561 32.8437 107.561 33.0849V43.2666C107.561 45.2464 108.186 46.8065 109.399 47.9169C110.616 49.0274 112.279 49.5901 114.356 49.5901C116.434 49.5901 118.067 49.0274 119.299 47.8842C120.53 46.7588 121.154 45.2137 121.154 43.2666V33.0849C121.154 32.8437 120.962 32.6502 120.722 32.6502V32.6353H120.725ZM139.947 32.6353H137.659C137.419 32.6353 137.227 32.8288 137.227 33.07V43.1714C137.227 45.7615 136.011 47.0476 133.581 47.0476C132.382 47.0476 131.486 46.7261 130.861 46.083C130.237 45.4399 129.935 44.5051 129.935 43.2845V33.0849C129.935 32.8437 129.743 32.6502 129.503 32.6502H127.215C126.975 32.6502 126.783 32.8437 126.783 33.0849V43.2666C126.783 45.2464 127.408 46.8065 128.621 47.9169C129.837 49.0274 131.5 49.5901 133.578 49.5901C135.656 49.5901 137.289 49.0274 138.52 47.8842C139.751 46.7588 140.376 45.2137 140.376 43.2666V33.0849C140.376 32.8437 140.183 32.6502 139.944 32.6502V32.6353H139.947ZM156.496 49.1078C156.576 49.2358 156.721 49.334 156.881 49.334H160V49.1733L155.922 43.1565C156.978 42.7218 157.792 42.0788 158.384 41.2571C158.976 40.4354 159.263 39.4083 159.263 38.1847C159.263 36.3835 158.686 35.017 157.553 34.0673C156.416 33.1176 154.785 32.6502 152.69 32.6502H146.727C146.487 32.6502 146.295 32.8437 146.295 33.0849V48.9143C146.295 49.1554 146.487 49.3489 146.727 49.3489H149.029C149.269 49.3489 149.461 49.1554 149.461 48.9143V43.9127H152.98L156.499 49.1078H156.496ZM149.429 41.3553V35.2254H152.77C153.874 35.2582 154.688 35.5321 155.25 36.062C155.809 36.5919 156.082 37.3481 156.082 38.3306C156.082 39.313 155.777 40.0186 155.185 40.5515C154.593 41.0814 153.761 41.3553 152.69 41.3553H149.429Z" fill="#050F14"/>
<defs>
<linearGradient id="paint0_linear_4691_2228" x1="31.7875" y1="54.7703" x2="-5.39536" y2="3.32987" gradientUnits="userSpaceOnUse">
<stop offset="0.03" stop-color="#FF5129"/>
<stop offset="0.11" stop-color="#F7333F"/>
<stop offset="0.2" stop-color="#EF1755"/>
<stop offset="0.28" stop-color="#EA0663"/>
<stop offset="0.35" stop-color="#E90068"/>
<stop offset="0.44" stop-color="#CE0179"/>
<stop offset="0.63" stop-color="#8B06A4"/>
<stop offset="0.91" stop-color="#200DEA"/>
<stop offset="0.99" stop-color="#0010FF"/>
</linearGradient>
</defs>
</svg>
