<svg width="97" height="40" viewBox="0 0 97 40" fill="none" xmlns="http://www.w3.org/2000/svg">
<path d="M19.4129 0H0.272714C0.123798 0 0 0.12089 0 0.274257V39.7275C0 39.8773 0.120209 40.0018 0.272714 40.0018H9.76387C9.91279 40.0018 10.0366 39.8809 10.0366 39.7275V30.1827C10.0366 30.0329 10.1568 29.9084 10.3093 29.9084H19.8005C19.9494 29.9084 20.0732 29.7875 20.0732 29.6342V20.0893C20.0732 19.9396 19.953 19.8151 19.8005 19.8151H0.909644C0.706903 19.8151 0.606429 19.5697 0.749963 19.4289L19.6103 0.460102C19.7789 0.294104 19.6551 0 19.4147 0H19.4129Z" fill="url(#paint0_linear_4688_837)"/>
<path d="M38.7917 26.1843H34.6131V29.645C34.6131 29.7912 34.4965 29.9085 34.3512 29.9085H32.9553C32.81 29.9085 32.6934 29.7912 32.6934 29.645V19.788H39.4412C39.5866 19.788 39.7032 19.9053 39.7032 20.0514V21.0853C39.7032 21.2315 39.5866 21.3488 39.4412 21.3488H34.6131V24.6434H38.7917C38.9371 24.6434 39.0537 24.7607 39.0537 24.9069V25.9209C39.0537 26.0671 38.9371 26.1843 38.7917 26.1843ZM50.5723 19.779H49.1854C49.04 19.779 48.9234 19.8963 48.9234 20.0424V26.1645C48.9234 27.7342 48.186 28.5137 46.713 28.5137C45.9864 28.5137 45.4427 28.3188 45.0642 27.9291C44.6856 27.5394 44.5026 26.9728 44.5026 26.233V20.0514C44.5026 19.9053 44.386 19.788 44.2406 19.788H42.8537C42.7084 19.788 42.5918 19.9053 42.5918 20.0514V26.2222C42.5918 27.4221 42.9704 28.3676 43.706 29.0406C44.4434 29.7136 45.4517 30.0546 46.7112 30.0546C47.9707 30.0546 48.9611 29.7136 49.7075 29.0207C50.4538 28.3387 50.8324 27.4022 50.8324 26.2222V20.0514C50.8324 19.9053 50.7158 19.788 50.5705 19.788V19.779H50.5723ZM62.3887 21.0853V20.0514C62.3887 19.9053 62.272 19.788 62.1267 19.788H53.8951C53.7497 19.788 53.6331 19.9053 53.6331 20.0514V21.0853C53.6331 21.2315 53.7497 21.3488 53.8951 21.3488H57.0456V29.645C57.0456 29.7912 57.1623 29.9085 57.3076 29.9085H58.6837C58.829 29.9085 58.9457 29.7912 58.9457 29.645V21.3488H62.1249C62.2703 21.3488 62.3869 21.2315 62.3869 21.0853H62.3887ZM73.1896 19.779H71.8027C71.6574 19.779 71.5407 19.8963 71.5407 20.0424V26.1645C71.5407 27.7342 70.8033 28.5137 69.3303 28.5137C68.6037 28.5137 68.06 28.3188 67.6815 27.9291C67.3029 27.5394 67.1199 26.9728 67.1199 26.233V20.0514C67.1199 19.9053 67.0033 19.788 66.8579 19.788H65.4711C65.3257 19.788 65.2091 19.9053 65.2091 20.0514V26.2222C65.2091 27.4221 65.5877 28.3676 66.3233 29.0406C67.0607 29.7136 68.069 30.0546 69.3285 30.0546C70.588 30.0546 71.5784 29.7136 72.3248 29.0207C73.0712 28.3387 73.4497 27.4022 73.4497 26.2222V20.0514C73.4497 19.9053 73.3331 19.788 73.1878 19.788V19.779H73.1896ZM84.8427 19.779H83.4558C83.3105 19.779 83.1939 19.8963 83.1939 20.0424V26.1645C83.1939 27.7342 82.4565 28.5137 80.9834 28.5137C80.2568 28.5137 79.7132 28.3188 79.3346 27.9291C78.956 27.5394 78.773 26.9728 78.773 26.233V20.0514C78.773 19.9053 78.6564 19.788 78.5111 19.788H77.1242C76.9789 19.788 76.8622 19.9053 76.8622 20.0514V26.2222C76.8622 27.4221 77.2408 28.3676 77.9764 29.0406C78.7138 29.7136 79.7221 30.0546 80.9816 30.0546C82.2412 30.0546 83.2315 29.7136 83.9779 29.0207C84.7243 28.3387 85.1029 27.4022 85.1029 26.2222V20.0514C85.1029 19.9053 84.9862 19.788 84.8409 19.788V19.779H84.8427ZM94.8757 29.7623C94.9241 29.8399 95.0121 29.8994 95.1089 29.8994H97V29.802L94.5276 26.1555C95.1681 25.892 95.6615 25.5023 96.0204 25.0043C96.3792 24.5063 96.5533 23.8838 96.5533 23.1422C96.5533 22.0506 96.2034 21.2224 95.5162 20.6469C94.8273 20.0713 93.8387 19.788 92.5684 19.788H88.9531C88.8078 19.788 88.6912 19.9053 88.6912 20.0514V29.645C88.6912 29.7912 88.8078 29.9085 88.9531 29.9085H90.349C90.4943 29.9085 90.611 29.7912 90.611 29.645V26.6138H92.7442L94.8775 29.7623H94.8757ZM90.5912 25.0638V21.3488H92.6168C93.2861 21.3686 93.7795 21.5346 94.1204 21.8558C94.4595 22.1769 94.6245 22.6352 94.6245 23.2307C94.6245 23.8261 94.4397 24.2537 94.0809 24.5767C93.7221 24.8979 93.2179 25.0638 92.5684 25.0638H90.5912Z" fill="#050F14"/>
<defs>
<linearGradient id="paint0_linear_4688_837" x1="19.2712" y1="33.1941" x2="-3.26169" y2="2.01142" gradientUnits="userSpaceOnUse">
<stop offset="0.03" stop-color="#FF5129"/>
<stop offset="0.11" stop-color="#F7333F"/>
<stop offset="0.2" stop-color="#EF1755"/>
<stop offset="0.28" stop-color="#EA0663"/>
<stop offset="0.35" stop-color="#E90068"/>
<stop offset="0.44" stop-color="#CE0179"/>
<stop offset="0.63" stop-color="#8B06A4"/>
<stop offset="0.91" stop-color="#200DEA"/>
<stop offset="0.99" stop-color="#0010FF"/>
</linearGradient>
</defs>
</svg>
